<?xml version="1.0" standalone="no"?>
<!DOCTYPE svg PUBLIC "-//W3C//DTD SVG 20010904//EN"
 "http://www.w3.org/TR/2001/REC-SVG-20010904/DTD/svg10.dtd">
<svg version="1.0" xmlns="http://www.w3.org/2000/svg"
 width="500.000000pt" height="500.000000pt" viewBox="0 0 500.000000 500.000000"
 preserveAspectRatio="xMidYMid meet">
<metadata>
Created by potrace 1.14, written by Peter Selinger 2001-2017
</metadata>
<g transform="translate(0.000000,500.000000) scale(0.100000,-0.100000)"
fill="#000000" stroke="none">
<path d="M513 4871 c-187 -85 -354 -264 -431 -461 -60 -153 -56 -29 -59 -1845
-1 -1059 2 -1685 8 -1729 50 -347 324 -636 669 -708 53 -11 394 -13 1840 -13
1656 0 1780 1 1843 17 258 67 459 233 574 474 l38 79 3 1833 2 1832 -25 62
c-79 195 -225 353 -412 447 l-62 31 -1973 0 c-1912 0 -1974 -1 -2015 -19z
m1177 -2478 c1 -82 31 -214 69 -303 65 -155 200 -308 347 -394 424 -248 968
-80 1179 365 40 85 73 207 76 276 3 90 -13 83 200 83 l189 0 0 -52 c0 -77 -26
-224 -56 -320 -125 -397 -457 -711 -861 -814 -561 -143 -1139 123 -1402 645
-67 132 -121 345 -121 479 l0 62 190 0 190 0 0 -27z"/>
</g>
</svg>
